<svg width="512" height="512" viewBox="0 0 512 512" fill="none" xmlns="http://www.w3.org/2000/svg">
  <rect width="512" height="512" rx="112" fill="#12251F"/>
  <rect x="112" y="112" width="288" height="288" rx="58" fill="#D7FB82"/>
  <path d="M256 346.7C219.2 346.7 192 328.3 192 302.7H230.4C230.4 313.1 240.5 320.3 256.3 320.3C271.5 320.3 280.8 314.1 280.8 304.5C280.8 295.2 273.3 291.2 250.4 286.1C214.1 278.1 196.3 265.9 196.3 239.7C196.3 216.3 214.4 198.9 245.3 194.7V165.3H272V194.9C302.9 199.5 323.5 217.6 323.5 242.9H285.1C285.1 232.8 274.9 226.1 260.3 226.1C246.4 226.1 237.6 231.7 237.6 240.5C237.6 249.1 245.3 253.1 267.5 258.1C304 266.1 322.7 279.2 322.7 304C322.7 329.1 303.2 343.2 272 346.7V376H245.3V347C245.3 347 256 346.7 256 346.7Z" fill="#12251F"/>
</svg>
